<svg width="1024" height="1024" viewBox="0 0 1024 1024" fill="none" xmlns="http://www.w3.org/2000/svg">
<rect width="1024" height="1024" rx="256" fill="#04050D"/>
<g clip-path="url(#clip0_289_33)">
<path d="M242.481 754.485C221.602 780.922 211.163 794.14 205.263 791.517C199.364 788.893 202.165 772.436 207.765 739.524C218.956 673.763 232 582.079 232 512C232 441.921 218.956 350.238 207.765 284.477C202.164 251.562 199.364 235.104 205.262 232.48C211.16 229.855 221.604 243.073 242.491 269.509C306.786 350.881 382.147 423.068 465.29 483.217C483.99 496.745 493.341 503.509 493.34 512.002C493.339 520.494 483.988 527.256 465.286 540.78C381.596 601.296 306.45 673.487 242.481 754.485Z" fill="white"/>
<path d="M807.422 788.291C812.808 795.674 825.441 790.397 823.764 781.414C812.055 718.692 792 598.582 792 511.688C792 424.795 812.055 304.684 823.764 241.963C825.441 232.979 812.806 227.701 807.419 235.083C732.766 337.384 640.965 426.598 537.983 497.538C528.12 504.332 528.121 519.044 537.985 525.837C641.792 597.326 733.2 686.548 807.422 788.291Z" fill="white"/>
</g>
<defs>
<clipPath id="clip0_289_33">
<rect width="640" height="623.377" fill="white" transform="translate(192 200)"/>
</clipPath>
</defs>
</svg>
