<svg width="128" height="128" viewBox="0 0 128 128" fill="none" xmlns="http://www.w3.org/2000/svg">
<path d="M61.6143 68.5156C62.8401 66.7356 65.4955 66.7349 66.7217 68.5146C79.5242 87.0997 95.6248 103.667 114.087 117.14C115.419 118.112 114.466 120.392 112.845 120.09C101.525 117.977 79.8494 114.357 64.168 114.357C48.4864 114.357 26.8105 117.977 15.4912 120.09C13.87 120.393 12.9177 118.113 14.25 117.141C32.6114 103.746 48.7128 87.2494 61.6143 68.5156ZM106.461 8.92081C112.578 7.9101 115.638 7.40479 116.126 8.46866C116.614 9.53309 114.157 11.4188 109.243 15.1884C94.1185 26.7915 80.7003 40.3918 69.5205 55.3964C67.0063 58.7708 65.7492 60.4579 64.1709 60.458C62.5924 60.4578 61.335 58.7706 58.8213 55.3955C47.5729 40.2922 34.1547 26.7307 19.0996 15.1864C14.1862 11.4188 11.7289 9.53431 12.2158 8.46964C12.7035 7.40506 15.7627 7.9101 21.8799 8.92081C34.103 10.9403 51.1451 13.2948 64.1709 13.2948C77.1966 13.2948 94.2379 10.9403 106.461 8.92081Z" fill="#1F1F1F"/>
<path d="M98 56C99.0996 56 100.131 56.2104 101.093 56.6318C102.064 57.0442 102.916 57.6175 103.649 58.3506C104.383 59.0837 104.956 59.9359 105.368 60.9072C105.79 61.8694 106 62.9004 106 64C106 65.0996 105.79 66.1352 105.368 67.1064C104.956 68.0686 104.383 68.9163 103.649 69.6494C102.916 70.3825 102.064 70.9603 101.093 71.3818C100.131 71.7942 99.0996 72 98 72C96.8913 72 95.8512 71.7941 94.8799 71.3818C93.9177 70.9603 93.07 70.3825 92.3369 69.6494C91.6038 68.9163 91.0305 68.0686 90.6182 67.1064C90.2059 66.1351 90 65.0996 90 64C90 62.9004 90.2058 61.8694 90.6182 60.9072C91.0305 59.9359 91.6038 59.0837 92.3369 58.3506C93.07 57.6175 93.9177 57.0442 94.8799 56.6318C95.8512 56.2104 96.8913 56 98 56ZM98 57.0586C96.7263 57.0586 95.5626 57.3746 94.5088 58.0068C93.4641 58.63 92.63 59.4686 92.0068 60.5225C91.3837 61.5671 91.0723 62.7263 91.0723 64C91.0723 65.2737 91.3838 66.4374 92.0068 67.4912C92.63 68.5359 93.4641 69.37 94.5088 69.9932C95.5626 70.6162 96.7263 70.9322 98 70.9414C99.2829 70.9322 100.447 70.6162 101.491 69.9932C102.545 69.37 103.379 68.5359 103.993 67.4912C104.616 66.4374 104.928 65.2737 104.928 64C104.928 62.7263 104.616 61.5671 103.993 60.5225C103.379 59.4686 102.545 58.63 101.491 58.0068C100.447 57.3746 99.2829 57.0586 98 57.0586ZM98.7285 60.2334C99.3791 60.2242 99.9289 60.422 100.378 60.8252C100.836 61.2284 101.065 61.7783 101.065 62.4746C101.065 62.9785 100.942 63.4138 100.694 63.7803C100.447 64.1466 100.126 64.4167 99.7324 64.5908L101.368 67.6016H100.282L98.7969 64.8105H96.3369V67.6016H95.375V60.2334H98.7285ZM96.3369 63.9863H98.5088C98.9669 63.9771 99.3335 63.8444 99.6084 63.5879C99.8924 63.3222 100.034 62.9509 100.034 62.4746C100.034 61.9982 99.8923 61.6406 99.6084 61.4023C99.3678 61.1938 99.0604 61.0758 98.6865 61.0498L98.5225 61.0449H96.3369V63.9863Z" fill="#1F1F1F"/>
</svg>
